<svg width="152" height="152" viewBox="0 0 152 152" fill="none" xmlns="http://www.w3.org/2000/svg">
<path d="M147.975 85.6127C152.622 80.0465 152.622 71.9535 147.975 66.3873L142.225 59.4986C139.682 56.4529 138.45 52.5239 138.797 48.5716L139.592 39.5358C140.244 32.1224 135.362 25.3519 128.122 23.629L120.848 21.8981C116.783 20.9308 113.306 18.3119 111.254 14.6722L107.455 7.93295C103.645 1.17474 95.3097 -1.56287 88.2345 1.62002L82.1539 4.35543C78.2402 6.11604 73.7598 6.11604 69.8461 4.35543L63.7488 1.61247C56.6805 -1.56726 48.3537 1.1615 44.5383 7.9079L40.7596 14.5893C38.6991 18.2327 35.21 20.8495 31.1354 21.8073L23.918 23.5038C16.6595 25.21 11.7563 31.9887 12.4078 39.4165L13.2057 48.5128C13.5514 52.4548 12.3255 56.3737 9.79495 59.4159L3.99347 66.3904C-0.637018 71.9571 -0.629912 80.037 4.01036 85.5956L9.7767 92.503C12.3185 95.5478 13.5509 99.4753 13.2043 103.426L12.4046 112.543C11.7545 119.955 16.6362 126.724 23.8748 128.446L31.1634 130.181C35.2214 131.147 38.6941 133.758 40.7475 137.389L44.5209 144.061C48.3436 150.821 56.6929 153.545 63.7664 150.341L69.8322 147.594C73.7536 145.818 78.249 145.812 82.1749 147.578L88.2513 150.311C95.3195 153.491 103.646 150.762 107.462 144.016L111.252 137.313C113.306 133.682 116.779 131.07 120.837 130.105L128.122 128.371C135.362 126.648 140.244 119.878 139.592 112.464L138.797 103.428C138.45 99.4761 139.682 95.5471 142.225 92.5014L147.975 85.6127Z" fill="#F0D288"/>
</svg>
