<svg width="77" height="75" viewBox="0 0 77 75" fill="none" xmlns="http://www.w3.org/2000/svg">
<path d="M14.9564 74.7046L0.142297 56.4106L3.34037 53.8209L5.05381 55.9368C4.97646 53.1772 6.04822 50.8982 8.26911 49.0998C10.6381 47.1814 13.0782 46.5922 15.5895 47.3322C17.1331 47.7852 18.8093 49.1285 20.6179 51.362L29.792 62.691L26.5939 65.2808L17.4912 54.0399C16.2775 52.5411 15.0919 51.6522 13.9343 51.3731C12.5393 51.043 11.1755 51.4174 9.84302 52.4965C8.48087 53.5995 7.78081 54.945 7.74282 56.5328C7.68739 58.2808 8.57589 60.2862 10.4083 62.5491L18.1545 72.1148L14.9564 74.7046Z" fill="#292E39"/>
<path d="M44.5394 40.6034L48.3825 39.8999C48.7125 41.579 48.7547 43.175 48.5088 44.6878C48.0347 47.5534 46.5983 49.9574 44.1997 51.8997C41.7123 53.9139 38.923 54.8589 35.8316 54.7347C32.746 54.5571 29.9181 52.8814 27.3479 49.7075C25.0871 46.9157 24.0185 43.9613 24.1421 40.8444C24.2715 37.6741 25.6983 34.9859 28.4226 32.7798C31.5022 30.286 34.7311 29.5203 38.1091 30.4829C40.7807 31.2391 43.2144 33.0637 45.4101 35.9569L31.0632 47.5748C32.5921 49.4023 34.3832 50.4335 36.4365 50.6684C38.4899 50.9033 40.3309 50.3613 41.9596 49.0425C43.4105 47.8675 44.3121 46.4076 44.6642 44.6627C44.9222 43.2859 44.8806 41.9328 44.5394 40.6034ZM29.1435 44.7501L39.9814 35.9737C38.5488 34.7495 36.984 34.1189 35.2871 34.082C33.596 33.9916 32.0693 34.498 30.7072 35.601C29.3747 36.6801 28.559 38.0948 28.2604 39.8451C27.9675 41.542 28.2619 43.177 29.1435 44.7501Z" fill="#292E39"/>
<path d="M39.7261 24.3563L43.2795 21.4788L58.8094 29.4857L53.3749 10.9681L70.3136 20.1698L65.7549 3.27861L69.3083 0.401105L76.0076 27.383L59.2561 18.3216L64.6367 36.591L39.7261 24.3563Z" fill="#292E39"/>
</svg>
